<?xml version="1.0" encoding="UTF-8" standalone="no"?>
<!-- Created with Inkscape (http://www.inkscape.org/) -->

<svg
   xmlns:dc="http://purl.org/dc/elements/1.1/"
   xmlns:cc="http://creativecommons.org/ns#"
   xmlns:rdf="http://www.w3.org/1999/02/22-rdf-syntax-ns#"
   xmlns:svg="http://www.w3.org/2000/svg"
   xmlns="http://www.w3.org/2000/svg"
   xmlns:sodipodi="http://sodipodi.sourceforge.net/DTD/sodipodi-0.dtd"
   xmlns:inkscape="http://www.inkscape.org/namespaces/inkscape"
   width="15.875mm"
   height="16.668749mm"
   viewBox="0 0 15.875 16.668749"
   version="1.1"
   id="svg867"
   inkscape:version="0.92.3 (2405546, 2018-03-11)"
   sodipodi:docname="cache.svg">
  <defs
     id="defs861" />
  <sodipodi:namedview
     id="base"
     pagecolor="#ffffff"
     bordercolor="#666666"
     borderopacity="1.0"
     inkscape:pageopacity="0.0"
     inkscape:pageshadow="2"
     inkscape:zoom="7.9195959"
     inkscape:cx="-1.7228502"
     inkscape:cy="10.760066"
     inkscape:document-units="mm"
     inkscape:current-layer="layer1"
     showgrid="false"
     fit-margin-top="0"
     fit-margin-left="0"
     fit-margin-right="0"
     fit-margin-bottom="0"
     inkscape:window-width="2560"
     inkscape:window-height="1356"
     inkscape:window-x="0"
     inkscape:window-y="28"
     inkscape:window-maximized="1" />
  <metadata
     id="metadata864">
    <rdf:RDF>
      <cc:Work
         rdf:about="">
        <dc:format>image/svg+xml</dc:format>
        <dc:type
           rdf:resource="http://purl.org/dc/dcmitype/StillImage" />
        <dc:title></dc:title>
      </cc:Work>
    </rdf:RDF>
  </metadata>
  <g
     inkscape:label="Layer 1"
     inkscape:groupmode="layer"
     id="layer1"
     transform="translate(-107.3893,-92.590018)">
    <g
       id="g1420"
       transform="matrix(0.26458333,0,0,0.26458333,107.3893,92.590018)">
      <path
         d="M 10.38,63 C 4.48,63 0,58.13 0,52.75 V 10.28 C 0,4.61 4.75,0 10.11,0 H 49.8 C 54.96,0 60,4.22 60,10.64 V 52.58 C 60,58.56 55.31,63 49.68,63 Z"
         pointer-events="all"
         id="path9"
         inkscape:connector-curvature="0"
         style="fill:#2e73b8;stroke:none" />
      <path
         d="m 15.85,15.57 c 0.04,1.81 -0.4,3.29 -1.6,4.16 -1.05,0.75 -3.02,0.83 -4.31,0.21 C 8.45,19.14 8.04,17.39 7.88,15.66 7.76,13.93 7.77,11.57 8.19,9.99 8.71,8.17 9.75,7.51 10.84,7.26 c 1.28,-0.22 2.97,-0.13 3.98,0.81 0.84,0.8 1.07,1.97 1.03,3.29 h -2.03 c 0,-0.37 0,-0.96 -0.21,-1.58 -0.21,-0.53 -0.63,-1.14 -1.54,-1.15 -1.08,0 -1.57,0.44 -1.88,1.48 -0.37,1.28 -0.37,2.88 -0.34,4.25 0.03,1.61 0.22,2.76 0.56,3.46 0.41,0.88 1.51,1.22 2.46,0.71 0.7,-0.38 1.06,-1.41 1.06,-2.96 z m 6.45,-0.23 -1.46,-6.26 -1.49,6.26 z m 3.29,4.78 h -2.17 l -0.78,-3.08 h -3.73 l -0.79,3.08 H 15.97 L 19.69,7.38 h 2.61 z m 8.59,-4.55 c 0.05,1.09 -0.17,2.52 -0.86,3.43 -0.57,0.8 -1.66,1.51 -3.56,1.33 -1.42,-0.12 -2.57,-0.79 -3.14,-2.51 -0.32,-1.04 -0.54,-2.58 -0.47,-4.95 0.06,-2 0.42,-3.56 1.13,-4.45 0.92,-1.19 2.36,-1.32 3.58,-1.23 1.36,0.06 2.35,0.69 2.79,1.5 0.48,0.83 0.56,1.77 0.53,2.67 H 32.14 C 32.16,10.7 32.11,10.01 31.75,9.39 31.46,8.92 30.98,8.55 30.02,8.64 c -0.8,0.09 -1.27,0.58 -1.56,1.64 -0.26,1.09 -0.3,2.5 -0.26,4.62 0.09,1.58 0.31,2.84 0.91,3.45 0.68,0.57 2.11,0.66 2.7,-0.47 0.32,-0.55 0.45,-1.31 0.45,-2.31 z m 9.28,4.55 H 41.42 V 14.27 H 37.7 v 5.85 H 35.64 V 7.38 h 2.06 v 5.17 h 3.72 V 7.38 h 2.04 z m 1.98,0 V 7.38 h 6.91 V 9.1 h -4.92 v 3.45 h 4.53 v 1.72 h -4.53 v 4.14 h 4.92 v 1.71 z"
         pointer-events="all"
         id="path15"
         inkscape:connector-curvature="0"
         style="fill:#ffffff;stroke:none" />
    </g>
  </g>
</svg>
