<?xml version="1.0" encoding="UTF-8" standalone="no"?>
<!-- Created with Inkscape (http://www.inkscape.org/) -->

<svg
   xmlns:dc="http://purl.org/dc/elements/1.1/"
   xmlns:cc="http://creativecommons.org/ns#"
   xmlns:rdf="http://www.w3.org/1999/02/22-rdf-syntax-ns#"
   xmlns:svg="http://www.w3.org/2000/svg"
   xmlns="http://www.w3.org/2000/svg"
   xmlns:sodipodi="http://sodipodi.sourceforge.net/DTD/sodipodi-0.dtd"
   xmlns:inkscape="http://www.inkscape.org/namespaces/inkscape"
   width="20.637499mm"
   height="20.637499mm"
   viewBox="0 0 20.637499 20.637499"
   version="1.1"
   id="svg1486"
   inkscape:version="0.92.3 (2405546, 2018-03-11)"
   sodipodi:docname="load-balancer.svg">
  <defs
     id="defs1480">
    <linearGradient
       x1="130"
       y1="78"
       x2="130"
       y2="0"
       id="mx-gradient-f78e04-1-d05c17-1-s-0"
       gradientUnits="userSpaceOnUse">
      <stop
         offset="0%"
         style="stop-color:#D05C17"
         id="stop2" />
      <stop
         offset="100%"
         style="stop-color:#F78E04"
         id="stop4" />
    </linearGradient>
  </defs>
  <sodipodi:namedview
     id="base"
     pagecolor="#ffffff"
     bordercolor="#666666"
     borderopacity="1.0"
     inkscape:pageopacity="0.0"
     inkscape:pageshadow="2"
     inkscape:zoom="3.959798"
     inkscape:cx="-34.724231"
     inkscape:cy="-24.216931"
     inkscape:document-units="mm"
     inkscape:current-layer="layer1"
     showgrid="false"
     fit-margin-top="0"
     fit-margin-left="0"
     fit-margin-right="0"
     fit-margin-bottom="0"
     inkscape:window-width="2560"
     inkscape:window-height="1356"
     inkscape:window-x="0"
     inkscape:window-y="28"
     inkscape:window-maximized="1" />
  <metadata
     id="metadata1483">
    <rdf:RDF>
      <cc:Work
         rdf:about="">
        <dc:format>image/svg+xml</dc:format>
        <dc:type
           rdf:resource="http://purl.org/dc/dcmitype/StillImage" />
        <dc:title></dc:title>
      </cc:Work>
    </rdf:RDF>
  </metadata>
  <g
     inkscape:label="Layer 1"
     inkscape:groupmode="layer"
     id="layer1"
     transform="translate(60.967559,-19.83006)">
    <g
       transform="matrix(0.26458333,0,0,0.26458333,-95.363392,19.83006)"
       id="g1464">
      <path
         d="m 130,0 h 78 v 78 h -78 z"
         pointer-events="all"
         id="path17"
         style="fill:url(#mx-gradient-f78e04-1-d05c17-1-s-0);stroke:none"
         inkscape:connector-curvature="0" />
      <path
         d="m 189.71,7.8 c -4.27,0 -7.75,3.49 -7.75,7.75 0,1.55 0.46,2.98 1.24,4.19 l -10.64,8.99 c -3.35,-5.13 -9.14,-8.53 -15.71,-8.53 -10.35,0 -18.75,8.42 -18.75,18.76 0,10.34 8.4,18.75 18.75,18.75 6.53,0 12.28,-3.35 15.64,-8.41 l 10.67,8.97 c -0.77,1.21 -1.23,2.63 -1.23,4.18 0,4.26 3.48,7.75 7.75,7.75 4.27,0 7.75,-3.49 7.75,-7.75 0,-4.27 -3.48,-7.75 -7.75,-7.75 -1.86,0 -3.55,0.65 -4.89,1.74 l -11.06,-9.3 c 1.02,-2.11 1.66,-4.46 1.82,-6.92 h 8.94 c 0.57,3.71 3.79,6.54 7.66,6.54 4.27,0 7.75,-3.48 7.75,-7.75 0,-4.26 -3.48,-7.75 -7.75,-7.75 -3.84,0 -7.04,2.84 -7.65,6.51 h -8.94 c -0.15,-2.46 -0.77,-4.76 -1.78,-6.87 l 11.05,-9.34 c 1.33,1.09 3.03,1.74 4.88,1.74 4.27,0 7.75,-3.48 7.75,-7.75 0,-4.26 -3.48,-7.75 -7.75,-7.75 z m 0,2.44 c 2.95,0 5.31,2.36 5.31,5.31 0,2.95 -2.36,5.31 -5.31,5.31 -2.95,0 -5.31,-2.36 -5.31,-5.31 0,-2.95 2.36,-5.31 5.31,-5.31 z m -32.86,12.4 c 9.03,0 16.31,7.29 16.31,16.32 0,9.02 -7.28,16.31 -16.31,16.31 -9.03,0 -16.31,-7.29 -16.31,-16.31 0,-9.03 7.28,-16.32 16.31,-16.32 z m 35.3,11.06 c 2.95,0 5.31,2.37 5.31,5.31 0,2.95 -2.36,5.31 -5.31,5.31 -2.95,0 -5.31,-2.36 -5.31,-5.31 0,-2.94 2.36,-5.31 5.31,-5.31 z m -2.47,23.44 c 2.95,0 5.31,2.36 5.31,5.31 0,2.95 -2.36,5.31 -5.31,5.31 -2.95,0 -5.31,-2.36 -5.31,-5.31 0,-2.95 2.36,-5.31 5.31,-5.31 z"
         pointer-events="all"
         id="path19"
         inkscape:connector-curvature="0"
         style="fill:#ffffff;stroke:none" />
    </g>
  </g>
</svg>
