<?xml version="1.0" encoding="UTF-8" standalone="no"?>
<!-- Created with Inkscape (http://www.inkscape.org/) -->

<svg
   xmlns:dc="http://purl.org/dc/elements/1.1/"
   xmlns:cc="http://creativecommons.org/ns#"
   xmlns:rdf="http://www.w3.org/1999/02/22-rdf-syntax-ns#"
   xmlns:svg="http://www.w3.org/2000/svg"
   xmlns="http://www.w3.org/2000/svg"
   xmlns:sodipodi="http://sodipodi.sourceforge.net/DTD/sodipodi-0.dtd"
   xmlns:inkscape="http://www.inkscape.org/namespaces/inkscape"
   width="20.240625mm"
   height="24.606253mm"
   viewBox="0 0 20.240625 24.606253"
   version="1.1"
   id="svg1486"
   inkscape:version="0.92.3 (2405546, 2018-03-11)"
   sodipodi:docname="s3.svg">
  <defs
     id="defs1480" />
  <sodipodi:namedview
     id="base"
     pagecolor="#ffffff"
     bordercolor="#666666"
     borderopacity="1.0"
     inkscape:pageopacity="0.0"
     inkscape:pageshadow="2"
     inkscape:zoom="0.35"
     inkscape:cx="-314.60714"
     inkscape:cy="-133.49999"
     inkscape:document-units="mm"
     inkscape:current-layer="layer1"
     showgrid="false"
     fit-margin-top="0"
     fit-margin-left="0"
     fit-margin-right="0"
     fit-margin-bottom="0"
     inkscape:window-width="2560"
     inkscape:window-height="1356"
     inkscape:window-x="0"
     inkscape:window-y="28"
     inkscape:window-maximized="1" />
  <metadata
     id="metadata1483">
    <rdf:RDF>
      <cc:Work
         rdf:about="">
        <dc:format>image/svg+xml</dc:format>
        <dc:type
           rdf:resource="http://purl.org/dc/dcmitype/StillImage" />
        <dc:title></dc:title>
      </cc:Work>
    </rdf:RDF>
  </metadata>
  <g
     inkscape:label="Layer 1"
     inkscape:groupmode="layer"
     id="layer1"
     transform="translate(-69.254687,-88.905208)">
    <path
       inkscape:connector-curvature="0"
       style="fill:#e05243;stroke:none;stroke-width:0.26458332"
       d="m 89.495312,108.37325 -1.635125,0.83608 -4.799542,-1.17475 v 3.59834 l -3.683,1.87854 -3.712103,-1.87854 v -3.59834 l -4.781021,1.17475 -1.629834,-0.83079 V 94.011666 l 1.629834,-0.833437 4.781021,1.153583 V 90.78375 l 3.712103,-1.878542 3.683,1.878542 v 3.548062 l 4.799542,-1.158875 1.635125,0.838729 z"
       pointer-events="all"
       id="path4" />
    <path
       inkscape:connector-curvature="0"
       style="fill:#000000;fill-opacity:0.3;stroke:none;stroke-width:0.26458332"
       d="m 70.884521,93.178229 v 16.031101 l -1.629834,-0.83079 V 94.011666 Z m 8.493124,1.939396 -3.712103,0.923396 V 90.78375 l 3.712103,-1.878542 z m 0,9.194275 -3.712103,-0.47625 v -5.257275 l 3.712103,-0.478896 z m 0,9.19956 -3.712103,-1.87854 v -5.25727 l 3.712103,0.92339 z m 8.482542,-4.30213 -4.799542,-1.17475 v -1.6801 l -3.683,-0.6694 v -1.37318 l 3.683,-0.47625 v -5.257275 l -3.683,-0.478896 v -1.373188 l 3.683,-0.68527 v -1.709209 l 4.799542,-1.158875 z"
       pointer-events="all"
       id="path6" />
    <path
       inkscape:connector-curvature="0"
       style="fill:#000000;fill-opacity:0.5;stroke:none;stroke-width:0.26458332"
       d="m 79.377645,96.726291 -3.712103,-0.68527 3.712103,-0.923396 3.683,0.923396 z"
       pointer-events="all"
       id="path8" />
    <path
       inkscape:connector-curvature="0"
       style="fill:#ffffff;fill-opacity:0.5;stroke:none;stroke-width:0.26458332"
       d="m 83.060645,106.39417 -3.683,0.90487 -3.712103,-0.92339 3.712103,-0.69057 z"
       pointer-events="all"
       id="path10" />
  </g>
</svg>
